<svg xmlns="http://www.w3.org/2000/svg" version="1.1" xmlns:xlink="http://www.w3.org/1999/xlink" xmlns:svgjs="http://svgjs.dev/svgjs" viewBox="0 0 800 800"><defs><filter id="uuunion-blur" x="-100%" y="-100%" width="400%" height="400%" color-interpolation-filters="sRGB">
        <feGaussianBlur in="SourceGraphic" stdDeviation="7.5 0" result="blur"></feGaussianBlur>
        <feDropShadow stdDeviation="12.307692307692308" in="blur" dx="10" dy="10" flood-color="hsl(316, 73%, 52%)" flood-opacity="0.25" x="0%" y="0%" width="100%" height="100%"></feDropShadow>
      </filter><filter id="uuunion-blur2" x="-100%" y="-100%" width="400%" height="400%" color-interpolation-filters="sRGB">
        <feGaussianBlur in="SourceGraphic" stdDeviation="7.5 0" result="blur"></feGaussianBlur>
        <feDropShadow stdDeviation="12.307692307692308" in="blur" dx="-10" dy="-10" flood-color="hsl(316, 73%, 52%)" flood-opacity="0.25" x="0%" y="0%" width="100%" height="100%"></feDropShadow>
      </filter><linearGradient gradientTransform="rotate(0, 0.5, 0.5)" x1="50%" y1="0%" x2="50%" y2="100%" id="uuunion-grad"><stop stop-color="hsl(37, 99%, 67%)" offset="10%"></stop><stop stop-color="hsl(316, 73%, 52%)" offset="90%"></stop></linearGradient><linearGradient gradientTransform="rotate(135, 0.5, 0.5)" x1="50%" y1="0%" x2="50%" y2="100%" id="uuunion-grad2"><stop stop-color="hsl(37, 99%, 67%)" offset="25%"></stop><stop stop-color="hsl(316, 73%, 52%)" offset="100%"></stop></linearGradient><linearGradient gradientTransform="rotate(333, 0.5, 0.5)" x1="50%" y1="0%" x2="50%" y2="100%" id="uuunion-grad3"><stop stop-color="hsl(37, 99%, 67%)" offset="0%"></stop><stop stop-color="hsl(316, 73%, 52%)" offset="75%"></stop></linearGradient></defs><path d="M-78.91 -82.51Q-64.3 -79.47 -49.69 -76.5 -35.08 -73.95 -20.47 -72.13 -5.85 -71.25 8.75 -71.43 23.36 -72.64 37.97 -74.74 52.58 -77.46 67.19 -80.5 81.8 -83.47 96.41 -86.02 111.02 -87.85 125.63 -88.73 140.24 -88.56 154.85 -87.36 169.46 -85.27 184.07 -82.54 198.68 -79.51 213.29 -76.54 227.9 -73.98 242.51 -72.15 257.12 -71.26 271.73 -71.42 286.34 -72.62 300.95 -74.71 315.56 -77.43 330.17 -80.46 344.78 -83.44 359.39 -86 374 -87.84 388.61 -88.73 403.22 -88.57 417.83 -87.38 432.44 -85.3 447.05 -82.58 461.66 -79.55 476.27 -76.57 490.88 -74.01 505.49 -72.16 520.1 -71.26 534.71 -71.42 549.32 -72.6 563.93 -74.68 578.54 -77.39 593.15 -80.42 607.76 -83.4 622.37 -85.97 636.98 -87.82 651.6 -88.72 666.21 -88.58 680.82 -87.4 695.43 -85.33 710.04 -82.61 724.65 -79.58 739.26 -76.6 753.87 -74.03 768.48 -72.18 783.09 -71.27 797.7 -71.41 812.31 -72.58 826.92 -74.65 841.53 -77.36 856.14 -80.39 857.89 -65.4 861.22 -50.41 865.89 -35.42 871.57 -20.43 877.85 -5.44 884.28 9.54 890.4 24.53 895.78 39.52 900.04 54.51 902.87 69.5 904.06 84.49 903.54 99.48 901.34 114.47 897.62 129.46 892.64 144.45 886.76 159.44 880.39 174.43 874 189.42 868.04 204.41 862.93 219.4 859.03 234.39 856.63 249.38 855.9 264.37 856.88 279.36 859.52 294.35 863.61 309.34 868.87 324.33 874.93 339.32 881.35 354.31 887.67 369.3 893.44 384.29 898.25 399.28 901.77 414.27 903.73 429.26 903.99 444.25 902.55 459.24 899.49 474.23 895.05 489.22 889.53 504.21 883.34 519.2 876.9 534.19 870.68 549.18 865.13 564.17 860.64 579.16 857.53 594.15 856.02 609.14 856.22 624.13 858.12 639.12 861.58 654.11 866.35 669.1 872.09 684.09 878.4 699.08 884.82 714.07 890.9 729.06 896.2 744.05 900.34 759.04 903.03 774.03 904.08 789.02 903.42 804.01 901.08 819 897.24 833.99 892.17 848.98 886.23 863.97 879.84 878.96 864.85 886.94 849.85 894.09 834.85 899.54 819.85 902.63 804.86 903 789.86 900.6 774.86 895.72 759.86 888.94 744.87 881.08 729.87 873.09 714.87 865.94 699.87 860.48 684.87 857.37 669.88 856.98 654.88 859.37 639.88 864.24 624.88 871.01 609.89 878.86 594.89 886.85 579.89 894.01 564.89 899.49 549.9 902.61 534.9 903.02 519.9 900.64 504.9 895.79 489.91 889.02 474.91 881.18 459.91 873.19 444.91 866.02 429.92 860.53 414.92 857.39 399.92 856.97 384.92 859.32 369.93 864.17 354.93 870.92 339.93 878.77 324.93 886.76 309.94 893.94 294.94 899.44 279.94 902.59 264.94 903.03 249.95 900.69 234.95 895.86 219.95 889.11 204.95 881.27 189.96 873.28 174.96 866.09 159.96 860.58 144.96 857.41 129.97 856.96 114.97 859.28 99.97 864.1 84.97 870.83 69.98 878.67 54.98 886.67 39.98 893.86 24.98 899.38 9.99 902.57 -5 903.04 -20 900.73 -35 895.92 -49.99 889.2 -64.99 881.37 -79.99 873.37 -80.28 858.43 -80.55 843.5 -80.78 828.56 -80.96 813.63 -81.06 798.69 -81.09 783.75 -81.05 768.82 -80.92 753.88 -80.73 738.95 -80.49 724.01 -80.22 709.08 -79.92 694.14 -79.63 679.2 -79.37 664.27 -79.15 649.33 -79 634.4 -78.91 619.46 -78.9 604.53 -78.97 589.59 -79.11 574.65 -79.32 559.72 -79.57 544.78 -79.85 529.85 -80.15 514.91 -80.43 499.97 -80.68 485.04 -80.89 470.1 -81.02 455.17 -81.09 440.23 -81.08 425.3 -80.99 410.36 -80.83 395.42 -80.61 380.49 -80.35 365.55 -80.06 350.62 -79.76 335.68 -79.49 320.75 -79.25 305.81 -79.06 290.87 -78.94 275.94 -78.9 261 -78.93 246.07 -79.04 231.13 -79.22 216.2 -79.45 201.26 -79.72 186.32 -80.01 171.39 -80.3 156.45 -80.57 141.52 -80.8 126.58 -80.97 111.65 -81.07 96.71 -81.09 81.77 -81.04 66.84 -80.91 51.9 -80.72 36.97 -80.47 22.03 -80.19 7.1 -79.9 -7.83 -79.61 -22.77 -79.35 -37.7 -79.14 -52.64 -78.99 -67.57 -78.91 -82.51" fill="url(#uuunion-grad)"></path><path d="M-78.91 -82.51Q-78.99 -67.57 -79.14 -52.64 -79.35 -37.7 -79.61 -22.77 -79.9 -7.83 -80.19 7.1 -80.47 22.03 -80.72 36.97 -80.91 51.9 -81.04 66.84 -81.09 81.77 -81.07 96.71 -80.97 111.65 -80.8 126.58 -80.57 141.52 -80.3 156.45 -80.01 171.39 -79.72 186.32 -79.45 201.26 -79.22 216.2 -79.04 231.13 -78.93 246.07 -78.9 261 -78.94 275.94 -79.06 290.87 -79.25 305.81 -79.49 320.75 -79.76 335.68 -80.06 350.62 -80.35 365.55 -80.61 380.49 -80.83 395.42 -70.63 399.08 -60.43 402.79 -50.23 406.34 -40.03 409.56 -29.83 412.26 -19.64 414.3 -0.52 415.88 2.78 415.98 15.39 408.76 27.94 400.31 40.41 390.82 52.81 380.57 65.13 369.9 77.37 359.2 89.53 348.82 101.61 339.11 113.63 330.34 125.58 322.72 137.47 316.34 149.31 311.21 161.12 307.2 172.91 304.12 184.68 301.7 196.46 299.61 208.26 297.5 220.09 295.02 231.97 291.86 243.91 287.79 255.93 282.62 268.05 276.29 280.27 268.81 292.6 260.31 305.06 250.98 317.65 241.09 330.39 230.95 343.26 220.9 356.28 211.23 369.44 202.24 382.75 194.13 396.18 187.06 409.75 181.07 423.43 176.13 437.21 172.12 451.08 168.83 465.01 166.01 479.01 163.36 493.03 160.59 507.06 157.4 521.07 153.56 535.05 148.86 548.97 143.2 562.81 136.53 576.54 128.92 590.14 120.48 603.59 111.41 616.87 101.96 629.96 92.4 642.85 83.01 655.52 74.04 667.96 65.71 680.16 58.18 692.13 51.56 703.85 45.84 715.34 40.98 726.59 36.85 737.62 33.25 748.43 29.95 759.05 26.71 769.49 23.27 779.78 19.41 789.94 14.93 800 9.7 793.23 -8.05 787.12 -25.8 782.26 -43.56 779.12 -61.31 778 -79.07 779.01 -96.82 782.05 -114.58 786.83 -132.33 772.16 -133.44 757.48 -135.32 742.81 -137.77 728.14 -140.47 713.47 -143.13 698.8 -145.4 684.12 -147.04 669.45 -147.83 654.78 -147.7 640.11 -146.65 625.44 -144.8 610.76 -142.39 596.09 -139.69 581.42 -137.02 566.75 -134.71 552.08 -133.03 537.4 -132.18 522.73 -132.25 508.06 -133.25 493.39 -135.05 478.72 -137.44 464.04 -140.13 449.37 -142.81 434.7 -145.15 420.03 -146.88 405.35 -147.79 390.68 -147.77 376.01 -146.83 361.34 -145.07 346.67 -142.71 331.99 -140.03 317.32 -137.34 302.65 -134.97 287.98 -133.2 273.31 -132.23 258.63 -132.19 243.96 -133.08 229.29 -134.79 214.62 -137.12 199.95 -139.79 185.27 -142.49 170.6 -144.88 155.93 -146.7 141.26 -147.72 126.59 -147.82 111.91 -146.99 97.24 -145.33 82.57 -143.03 67.9 -140.37 53.22 -137.67 38.55 -135.24 23.88 -133.38 9.21 -132.31 -5.45 -132.15 -20.13 -132.92 -34.8 -134.54 -49.47 -136.8 -64.14 -139.45 -78.81 -142.16 -93.49 -144.61 -108.16 -146.51 -122.83 -147.64 -132.19 -134.82 -115.08 -117.62 -105.98 -109.3 -96.92 -100.65 -87.9 -91.7 -78.91 -82.51" fill="url(#uuunion-grad2)" filter="url(#uuunion-blur)"></path><path d="M816.66 415.52Q826.86 415.99 837.06 415.61 847.26 414.38 857.46 412.38 867.66 409.72 877.86 406.52 894.91 408.63 903.73 429.26 903.99 444.25 902.55 459.24 899.49 474.23 895.05 489.22 889.53 504.21 883.34 519.2 876.9 534.19 870.68 549.18 865.13 564.17 860.64 579.16 857.53 594.15 856.02 609.14 856.22 624.13 858.12 639.12 861.58 654.11 866.35 669.1 872.09 684.09 878.4 699.08 884.82 714.07 890.9 729.06 896.2 744.05 900.34 759.04 903.03 774.03 904.08 789.02 903.42 804.01 901.08 819 897.24 833.99 892.17 848.98 886.23 863.97 879.84 878.96 866.08 886.3 852.32 893.01 838.55 898.39 824.79 901.91 811.03 903.19 797.26 902.12 783.5 898.8 769.74 893.58 755.97 886.97 742.21 879.65 728.45 872.37 714.68 865.86 700.92 860.79 687.16 857.67 673.39 856.82 659.63 858.32 645.87 862.03 632.1 867.56 618.34 874.36 604.58 881.73 590.81 888.92 577.05 895.2 563.29 899.94 549.52 902.66 535.76 903.07 522 901.13 508.23 897.05 494.47 891.24 480.71 884.28 466.94 876.89 453.18 869.81 439.42 863.77 425.65 859.37 411.89 857.08 398.13 857.11 384.36 859.46 370.6 863.91 356.84 869.98 343.07 877.08 329.31 884.47 315.55 891.41 301.78 897.18 288.02 901.21 274.26 903.09 260.49 902.62 246.73 899.84 232.97 895.06 219.2 888.74 205.44 881.53 191.68 874.17 177.91 867.4 164.15 861.91 150.39 858.25 136.62 856.81 122.86 857.72 109.1 860.9 95.33 866.01 81.57 872.55 67.81 879.84 54.04 887.15 40.28 893.73 26.52 898.92 5.96 897.61 -0.66 882.89 -0.5 872.74 -0.36 862.59 -0.24 852.44 -0.14 842.29 0.19 827.07 0.98 822 13.82 814.73 26.65 805.72 39.45 795.22 52.21 783.58 64.92 771.26 77.57 758.8 90.15 746.69 102.66 735.44 115.09 725.44 127.42 717.01 139.67 710.31 151.83 705.36 163.89 702.05 175.87 700.1 187.76 699.15 199.58 698.74 211.33 698.39 223.02 697.59 234.67 695.9 246.28 692.94 257.88 688.46 269.48 682.31 281.09 674.5 292.73 665.18 304.42 654.62 316.17 643.2 328.01 631.35 339.95 619.54 351.99 608.24 364.17 597.87 376.48 588.76 388.95 581.14 401.57 575.11 414.35 570.63 427.31 567.54 440.43 565.57 453.72 564.34 467.17 563.43 480.78 562.39 494.54 560.78 508.43 558.22 522.44 554.42 536.56 549.17 550.76 542.42 565.03 534.22 579.33 524.75 593.66 514.28 607.97 503.19 622.25 491.89 636.46 480.79 650.59 470.31 664.61 460.78 678.49 452.48 692.2 445.56 705.73 440.06 719.05 435.9 732.15 432.9 745.01 430.77 757.62 429.15 769.96 427.65 782.04 425.88 793.85 423.46 811.03 417.8 816.66 415.52" fill="url(#uuunion-grad3)" filter="url(#uuunion-blur2)"></path></svg>